<svg width="40" height="33" viewBox="0 0 40 33" fill="none" xmlns="http://www.w3.org/2000/svg">
<path d="M4 32.9C2.9 32.9 1.95867 32.5087 1.176 31.726C0.393333 30.9434 0.00133333 30.0014 0 28.9V4.90002C0 3.80002 0.392 2.85869 1.176 2.07602C1.96 1.29336 2.90133 0.901358 4 0.900024H36C37.1 0.900024 38.042 1.29202 38.826 2.07602C39.61 2.86002 40.0013 3.80136 40 4.90002V28.9C40 30 39.6087 30.942 38.826 31.726C38.0433 32.51 37.1013 32.9014 36 32.9H4ZM20 18.9L4 8.90002V28.9H36V8.90002L20 18.9ZM20 14.9L36 4.90002H4L20 14.9ZM4 8.90002V4.90002V28.9V8.90002Z" fill="#FFFCF9"/>
</svg>
